<?xml version="1.0" encoding="iso-8859-1"?>
<!-- Generator: Adobe Illustrator 17.1.0, SVG Export Plug-In . SVG Version: 6.00 Build 0)  -->
<!DOCTYPE svg PUBLIC "-//W3C//DTD SVG 1.1//EN" "http://www.w3.org/Graphics/SVG/1.1/DTD/svg11.dtd">
<svg version="1.1" id="Capa_1" xmlns="http://www.w3.org/2000/svg" xmlns:xlink="http://www.w3.org/1999/xlink" x="0px" y="0px"
	 viewBox="0 0 426.781 426.781" style="enable-background:new 0 0 426.781 426.781;" xml:space="preserve">
<path d="M425.257,141.558c-2.627-4.196-7.927-5.836-12.469-3.863c-27.495,11.972-36.426,28.811-54.22,62.359
	c-7.249,13.668-16.272,30.679-28.901,52.041c-1.192,2.017-2.449,4.004-3.737,5.979c0.554-17.896-0.933-36.473-4.495-55.567
	c-5.111-27.393-10.04-48.227-14.001-64.968c-9.1-38.461-12.505-52.853-1.767-75.666c2.108-4.479,0.622-9.827-3.496-12.576
	c-4.117-2.747-9.628-2.07-12.955,1.595c-21.749,23.952-23.001,43.283-25.746,85.64c-0.063,0.977-0.128,1.97-0.193,2.975
	c-4.127-13.258-8.289-26.295-12.223-38.614c-11.967-37.477-22.302-69.843-25.819-89.282c-0.861-4.759-5.004-8.22-9.84-8.22
	c-4.836,0-8.979,3.461-9.84,8.22c-3.517,19.44-13.853,51.807-25.819,89.284c-5.006,15.678-10.347,32.407-15.52,49.286
	c-0.334-4.834-0.628-9.376-0.906-13.649c-2.745-42.356-3.997-61.688-25.746-85.64c-3.329-3.664-8.836-4.342-12.955-1.595
	c-4.118,2.749-5.604,8.097-3.496,12.576c10.738,22.814,7.333,37.205-1.767,75.666c-3.96,16.741-8.89,37.575-14,64.968
	c-3.562,19.094-5.049,37.672-4.495,55.567c-1.287-1.974-2.545-3.962-3.737-5.979c-12.629-21.362-21.651-38.373-28.901-52.041
	c-17.794-33.549-26.726-50.388-54.22-62.359c-4.539-1.976-9.841-0.334-12.469,3.863c-2.627,4.196-1.787,9.684,1.974,12.902
	c17.368,14.867,19.735,27.132,26.761,63.542c2.994,15.516,6.72,34.825,12.768,59.701c11.238,46.222,33.692,84.307,64.934,110.139
	c27.725,22.923,61.763,35.548,95.844,35.548c3.197,0,6.413-0.128,9.585-0.352c3.169,0.223,6.385,0.351,9.584,0.352
	c0.004,0,0.004,0,0.008,0c34.077,0,68.115-12.625,95.837-35.547c31.242-25.832,53.696-63.917,64.934-110.14
	c6.048-24.876,9.774-44.186,12.768-59.701c7.026-36.41,9.393-48.675,26.761-63.542C427.044,151.242,427.884,145.755,425.257,141.558
	z M284.213,126.01c1.124,4.994,2.389,10.342,3.759,16.135c3.912,16.533,8.78,37.108,13.802,64.03
	c5.353,28.69,5.676,55.988,0.997,81.198c-11.497,12.54-24.155,24.433-36.601,36.108c-13.042,12.235-25.772,24.186-36.351,36.302
	c5.134-21.13,12.747-40.37,20.608-60.232c11.471-28.98,23.332-58.948,27.477-96.15c0.321-2.884,0.62-5.685,0.906-8.435
	c0.004-0.028,0.005-0.056,0.009-0.083c2.418-23.283,3.623-41.84,4.61-57.059C283.701,133.621,283.955,129.692,284.213,126.01z
	 M198.788,106.978c6.188-19.379,11.947-37.414,16.607-53.188c4.661,15.772,10.419,33.807,16.606,53.185
	c8.781,27.497,18.703,58.583,26.748,87.518c-0.231,2.194-0.469,4.414-0.723,6.692c-3.849,34.544-14.704,61.97-26.196,91.005
	c-6.555,16.562-13.215,33.388-18.441,51.636c-5.226-18.247-11.886-35.074-18.441-51.636c-11.08-27.994-21.548-54.511-25.735-87.334
	C177.723,172.952,188.912,137.907,198.788,106.978z M125.007,206.175c5.022-26.922,9.891-47.497,13.802-64.03
	c1.371-5.793,2.636-11.141,3.759-16.135c0.257,3.683,0.512,7.611,0.784,11.815c1.104,17.033,2.478,38.23,5.524,65.577
	c4.145,37.202,16.006,67.17,27.477,96.15c7.861,19.862,15.474,39.102,20.608,60.232c-10.579-12.116-23.309-24.067-36.351-36.302
	c-12.446-11.676-25.104-23.568-36.601-36.108C119.331,262.163,119.654,234.865,125.007,206.175z M62.461,272.979
	c-5.935-24.411-9.611-43.46-12.564-58.766c-0.637-3.302-1.246-6.457-1.843-9.479c0.804,1.512,1.634,3.075,2.49,4.69
	c7.346,13.851,16.488,31.087,29.352,52.848c7.539,12.753,16.892,24.705,26.993,35.963c0.28,0.351,0.581,0.683,0.904,0.991
	c12.618,13.952,26.339,26.838,39.133,38.841c24.173,22.676,47.196,44.272,54.45,65.296
	C151.096,402.286,85.492,367.702,62.461,272.979z M376.884,214.214c-2.954,15.306-6.629,34.354-12.564,58.766
	c-23.033,94.733-88.634,129.313-138.916,130.385c7.254-21.023,30.277-42.62,54.45-65.296c12.796-12.004,26.519-24.893,39.138-38.846
	c0.321-0.307,0.619-0.636,0.898-0.984c10.102-11.258,19.455-23.211,26.995-35.965c12.864-21.761,22.006-38.997,29.353-52.848
	c0.856-1.615,1.686-3.179,2.49-4.69C378.13,207.757,377.521,210.912,376.884,214.214z"/>
<g>
</g>
<g>
</g>
<g>
</g>
<g>
</g>
<g>
</g>
<g>
</g>
<g>
</g>
<g>
</g>
<g>
</g>
<g>
</g>
<g>
</g>
<g>
</g>
<g>
</g>
<g>
</g>
<g>
</g>
</svg>
